<?xml version="1.0" standalone="no"?>
<!DOCTYPE svg PUBLIC "-//W3C//DTD SVG 20010904//EN"
 "http://www.w3.org/TR/2001/REC-SVG-20010904/DTD/svg10.dtd">
<svg version="1.0" xmlns="http://www.w3.org/2000/svg"
 width="225.000000pt" height="224.000000pt" viewBox="0 0 225.000000 224.000000"
 preserveAspectRatio="xMidYMid meet">

<g transform="translate(0.000000,224.000000) scale(0.100000,-0.100000)"
fill="#000000" stroke="none">
<path d="M1005 2150 c-322 -51 -590 -277 -689 -584 -50 -153 -54 -332 -12
-491 15 -58 18 -53 41 70 9 50 25 124 35 165 10 41 26 113 35 159 20 103 51
173 110 256 86 121 202 206 352 258 115 39 288 49 407 22 200 -44 387 -190
478 -372 63 -126 82 -214 76 -361 -9 -203 -70 -344 -213 -488 -150 -151 -351
-222 -553 -197 -168 21 -337 98 -460 208 l-50 45 -31 -54 c-17 -29 -31 -58
-31 -64 0 -16 70 -75 151 -125 258 -160 537 -189 801 -83 104 42 171 89 273
191 90 89 107 112 153 205 74 149 95 234 95 395 0 157 -21 245 -88 380 -110
219 -316 387 -549 445 -94 24 -247 33 -331 20z"/>
<path d="M560 1591 c-30 -8 -49 -55 -90 -221 -34 -134 -56 -282 -66 -430 l-7
-105 21 19 c40 35 120 211 189 416 3 8 15 -15 28 -51 29 -84 109 -241 136
-265 29 -26 83 -23 115 7 33 31 89 131 124 221 15 39 30 66 33 62 2 -5 20 -73
38 -151 l33 -143 128 0 128 0 0 125 0 125 90 0 90 0 0 -125 0 -125 85 0 85 0
0 310 0 310 -85 0 -85 0 0 -110 0 -110 -90 0 -90 0 0 110 0 110 -85 0 -85 0
-1 -92 0 -93 -28 90 c-31 102 -53 123 -117 110 -33 -6 -38 -13 -127 -191 l-93
-186 -89 186 c-78 160 -94 187 -119 196 -32 11 -30 11 -66 1z"/>
<path d="M500 310 c-11 -11 -20 -24 -20 -29 0 -10 24 -31 52 -46 28 -14 20
-30 -14 -30 -39 0 -44 -22 -7 -30 20 -5 38 -1 55 10 34 22 28 56 -13 75 -41
19 -43 40 -3 40 32 0 40 14 14 24 -27 10 -43 7 -64 -14z"/>
<path d="M1097 323 c-9 -2 -24 -18 -33 -34 -43 -83 68 -161 121 -86 44 63 -12
140 -88 120z m65 -48 c22 -49 -25 -98 -60 -63 -15 15 -15 61 0 76 20 20 48 14
60 -13z"/>
<path d="M1403 324 c-9 -4 -13 -29 -13 -75 0 -55 3 -69 15 -69 9 0 15 9 15 25
0 14 6 25 13 25 8 0 19 -11 25 -25 7 -15 20 -25 33 -25 21 0 21 1 4 26 -12 19
-14 29 -6 37 15 15 14 52 -2 66 -17 13 -67 22 -84 15z m65 -46 c3 -13 -3 -18
-22 -18 -20 0 -26 5 -26 21 0 15 5 20 22 17 13 -2 24 -11 26 -20z"/>
<path d="M760 311 c0 -5 10 -11 23 -13 20 -3 22 -8 22 -61 0 -48 3 -57 18 -57
14 0 17 10 17 60 0 53 2 60 20 60 11 0 20 5 20 10 0 6 -27 10 -60 10 -33 0
-60 -4 -60 -9z"/>
<path d="M1700 250 l0 -70 50 0 c28 0 50 5 50 10 0 6 -16 10 -35 10 -28 0 -35
4 -35 20 0 16 7 20 30 20 20 0 30 5 30 15 0 10 -10 15 -30 15 -20 0 -30 5 -30
15 0 10 11 15 35 15 19 0 35 5 35 10 0 6 -22 10 -50 10 l-50 0 0 -70z"/>
</g>
</svg>
